<svg width="54" height="54" viewBox="0 0 54 54" fill="none" xmlns="http://www.w3.org/2000/svg">
<rect width="54" height="54" rx="27" fill="url(#paint0_linear_1_3087)"/>
<path d="M17.4 33.2168C18.4986 31.3843 20.9065 30.1301 24.6631 30.1301C28.4197 30.1301 30.8276 31.3843 31.9262 33.2168M32.6212 28.7406C34.6106 29.7352 35.6053 30.7299 36.6 32.7193M30.5522 21.1376C31.4883 21.6412 32.1246 22.6299 32.1246 23.7673C32.1246 24.8718 31.5245 25.8362 30.6326 26.3522M27.6472 23.7673C27.6472 25.4153 26.3112 26.7513 24.6631 26.7513C23.0151 26.7513 21.679 25.4153 21.679 23.7673C21.679 22.1192 23.0151 20.7832 24.6631 20.7832C26.3112 20.7832 27.6472 22.1192 27.6472 23.7673Z" stroke="white" stroke-width="2" stroke-linecap="round"/>
<defs>
<linearGradient id="paint0_linear_1_3087" x1="18" y1="11.25" x2="38.25" y2="42.75" gradientUnits="userSpaceOnUse">
<stop stop-color="#FF6600"/>
<stop offset="1" stop-color="#D128A1"/>
</linearGradient>
</defs>
</svg>
